<?xml version="1.0" encoding="UTF-8"?>
<mxfile host="app.diagrams.net" modified="2025-09-20T00:39:20.578267" version="22.1.11">
  <diagram name="Security Circle" id="refactored_diagram">
    <mxGraphModel dx="2500" dy="1600" grid="1" gridSize="10" guides="1" tooltips="1" connect="1" arrows="1" fold="1" page="1" pageScale="1" pageWidth="1400" pageHeight="1000">
      <root>
        <mxCell id="0"/>
        <mxCell id="1" parent="0"/>
        <mxCell id="ms_invoice_service" value="Invoice_Service Service\n2vCPU/4GB\nAuto Scaling" style="shape=mxgraph.aws4.fargate;fillColor=#F5F5F5;strokeColor=#666666;fontColor=#333333;fontSize=12;labelPosition=bottom;verticalLabelPosition=top;align=center;verticalAlign=bottom;" vertex="1" parent="1">
          <mxGeometry x="1040" y="460" width="78" height="78" as="geometry"/>
        </mxCell>
        <mxCell id="ms_product_service" value="Product_Service Service\n2vCPU/4GB\nAuto Scaling" style="shape=mxgraph.aws4.fargate;fillColor=#F5F5F5;strokeColor=#666666;fontColor=#333333;fontSize=12;labelPosition=bottom;verticalLabelPosition=top;align=center;verticalAlign=bottom;" vertex="1" parent="1">
          <mxGeometry x="889" y="772" width="78" height="78" as="geometry"/>
        </mxCell>
        <mxCell id="ms_ocr_service" value="Ocr_Service Service\n2vCPU/4GB\nAuto Scaling" style="shape=mxgraph.aws4.fargate;fillColor=#F5F5F5;strokeColor=#666666;fontColor=#333333;fontSize=12;labelPosition=bottom;verticalLabelPosition=top;align=center;verticalAlign=bottom;" vertex="1" parent="1">
          <mxGeometry x="550" y="849" width="78" height="78" as="geometry"/>
        </mxCell>
        <mxCell id="ms_commission_service" value="Commission_Service Service\n2vCPU/4GB\nAuto Scaling" style="shape=mxgraph.aws4.fargate;fillColor=#F5F5F5;strokeColor=#666666;fontColor=#333333;fontSize=12;labelPosition=bottom;verticalLabelPosition=top;align=center;verticalAlign=bottom;" vertex="1" parent="1">
          <mxGeometry x="279" y="633" width="78" height="78" as="geometry"/>
        </mxCell>
        <mxCell id="ms_certificate_service" value="Certificate_Service Service\n2vCPU/4GB\nAuto Scaling" style="shape=mxgraph.aws4.fargate;fillColor=#F5F5F5;strokeColor=#666666;fontColor=#333333;fontSize=12;labelPosition=bottom;verticalLabelPosition=top;align=center;verticalAlign=bottom;" vertex="1" parent="1">
          <mxGeometry x="279" y="286" width="78" height="78" as="geometry"/>
        </mxCell>
        <mxCell id="aws_rds" value="RDS PostgreSQL\ndb.r5.2xlarge\nMulti-AZ" style="shape=mxgraph.aws4.rds;fillColor=#E8F5E8;strokeColor=#4CAF50;fontColor=#2E7D32;fontSize=12;labelPosition=bottom;verticalLabelPosition=top;align=center;verticalAlign=bottom;" vertex="1" parent="1">
          <mxGeometry x="550" y="70" width="78" height="78" as="geometry"/>
        </mxCell>
        <mxCell id="aws_s3" value="S3 Storage\nIntelligent Tiering\nVersioning" style="shape=mxgraph.aws4.s3;fillColor=#E8F5E8;strokeColor=#4CAF50;fontColor=#2E7D32;fontSize=12;labelPosition=bottom;verticalLabelPosition=top;align=center;verticalAlign=bottom;" vertex="1" parent="1">
          <mxGeometry x="889" y="147" width="78" height="78" as="geometry"/>
        </mxCell>
        <mxCell id="legend_title" value="LEYENDA - CATEGORÍAS DE COMPONENTES" style="fillColor=#FFFFFF;strokeColor=#000000;fontColor=#333333;fontSize=12;" vertex="1" parent="1">
          <mxGeometry x="50" y="50" width="200" height="30" as="geometry"/>
        </mxCell>
        <mxCell id="legend_icon_security" value="" style="fillColor=#FFEBEE;strokeColor=#D32F2F;fontColor=#000000;fontSize=12;" vertex="1" parent="1">
          <mxGeometry x="70" y="100" width="30" height="20" as="geometry"/>
        </mxCell>
        <mxCell id="legend_text_security" value="Security: Servicios de seguridad y autenticación" style="fillColor=#FFFFFF;strokeColor=#000000;fontColor=#B71C1C;fontSize=12;" vertex="1" parent="1">
          <mxGeometry x="120" y="100" width="200" height="30" as="geometry"/>
        </mxCell>
        <mxCell id="legend_icon_data" value="" style="fillColor=#E8F5E8;strokeColor=#4CAF50;fontColor=#000000;fontSize=12;" vertex="1" parent="1">
          <mxGeometry x="70" y="140" width="30" height="20" as="geometry"/>
        </mxCell>
        <mxCell id="legend_text_data" value="Data: Bases de datos y almacenamiento" style="fillColor=#FFFFFF;strokeColor=#000000;fontColor=#2E7D32;fontSize=12;" vertex="1" parent="1">
          <mxGeometry x="120" y="140" width="200" height="30" as="geometry"/>
        </mxCell>
        <mxCell id="legend_icon_network" value="" style="fillColor=#E3F2FD;strokeColor=#1976D2;fontColor=#000000;fontSize=12;" vertex="1" parent="1">
          <mxGeometry x="70" y="180" width="30" height="20" as="geometry"/>
        </mxCell>
        <mxCell id="legend_text_network" value="Network: Servicios de red y distribución" style="fillColor=#FFFFFF;strokeColor=#000000;fontColor=#0D47A1;fontSize=12;" vertex="1" parent="1">
          <mxGeometry x="120" y="180" width="200" height="30" as="geometry"/>
        </mxCell>
        <mxCell id="legend_icon_compute" value="" style="fillColor=#FFF3E0;strokeColor=#FF9800;fontColor=#000000;fontSize=12;" vertex="1" parent="1">
          <mxGeometry x="70" y="220" width="30" height="20" as="geometry"/>
        </mxCell>
        <mxCell id="legend_text_compute" value="Compute: Servicios de cómputo y procesamiento" style="fillColor=#FFFFFF;strokeColor=#000000;fontColor=#E65100;fontSize=12;" vertex="1" parent="1">
          <mxGeometry x="120" y="220" width="200" height="30" as="geometry"/>
        </mxCell>
        <mxCell id="legend_icon_integration" value="" style="fillColor=#F3E5F5;strokeColor=#9C27B0;fontColor=#000000;fontSize=12;" vertex="1" parent="1">
          <mxGeometry x="70" y="260" width="30" height="20" as="geometry"/>
        </mxCell>
        <mxCell id="legend_text_integration" value="Integration: Servicios de integración y mensajería" style="fillColor=#FFFFFF;strokeColor=#000000;fontColor=#4A148C;fontSize=12;" vertex="1" parent="1">
          <mxGeometry x="120" y="260" width="200" height="30" as="geometry"/>
        </mxCell>
        <mxCell id="legend_icon_monitoring" value="" style="fillColor=#FFF8E1;strokeColor=#FFC107;fontColor=#000000;fontSize=12;" vertex="1" parent="1">
          <mxGeometry x="70" y="300" width="30" height="20" as="geometry"/>
        </mxCell>
        <mxCell id="legend_text_monitoring" value="Monitoring: Monitoreo y observabilidad" style="fillColor=#FFFFFF;strokeColor=#000000;fontColor=#FF8F00;fontSize=12;" vertex="1" parent="1">
          <mxGeometry x="120" y="300" width="200" height="30" as="geometry"/>
        </mxCell>
        <mxCell id="main_note" value="Arquitectura BMC - Migración GCP → AWS\n• 5 microservicios en ECS Fargate\n• Base de datos PostgreSQL Multi-AZ\n• Cache Redis para alta performance\n• CDN CloudFront para distribución global\n• Seguridad WAF + Cognito integrada" style="fillColor=#FFF9C4;strokeColor=#F57F17;fontColor=#333333;fontSize=12;" vertex="1" parent="1">
          <mxGeometry x="1100" y="100" width="300" height="150" as="geometry"/>
        </mxCell>
        <mxCell id="performance_note" value="Métricas de Performance\n• API Gateway: 10K req/s throttle\n• Product Service: &lt;500ms lookup\n• OCR Service: &gt;95% accuracy\n• RDS: 35-day backup retention\n• Redis: 99.9% availability" style="fillColor=#E8F5E8;strokeColor=#4CAF50;fontColor=#2E7D32;fontSize=12;" vertex="1" parent="1">
          <mxGeometry x="1100" y="300" width="300" height="150" as="geometry"/>
        </mxCell>
        <mxCell id="security_note" value="Características de Seguridad\n• WAF con protección DDoS\n• Cognito MFA habilitado\n• KMS encryption at rest\n• VPC con subnets privadas\n• CloudTrail audit completo" style="fillColor=#FFEBEE;strokeColor=#D32F2F;fontColor=#B71C1C;fontSize=12;" vertex="1" parent="1">
          <mxGeometry x="1100" y="500" width="300" height="150" as="geometry"/>
        </mxCell>
        <mxCell id="conn_ms_invoice_service_to_aws_rds" style="edgeStyle=orthogonalEdgeStyle;rounded=0;orthogonalLoop=1;jettySize=auto;html=1;strokeColor=#2196F3;strokeWidth=2;fontColor=#2196F3;" edge="1" parent="1" source="ms_invoice_service" target="aws_rds">
          <mxGeometry relative="1" as="geometry">
            <Array as="points"/>
          </mxGeometry>
        </mxCell>
        <mxCell id="label_1001" value="Database Access" style="edgeLabel;html=1;align=center;verticalAlign=middle;resizable=0;points=[];fontSize=12;fontColor=#2196F3;" vertex="1" connectable="0" parent="conn_ms_invoice_service_to_aws_rds">
          <mxGeometry x="-0.1" y="1" relative="1" as="geometry">
            <mxPoint as="offset"/>
          </mxGeometry>
        </mxCell>
        <mxCell id="conn_ms_product_service_to_aws_rds" style="edgeStyle=orthogonalEdgeStyle;rounded=0;orthogonalLoop=1;jettySize=auto;html=1;strokeColor=#2196F3;strokeWidth=2;fontColor=#2196F3;" edge="1" parent="1" source="ms_product_service" target="aws_rds">
          <mxGeometry relative="1" as="geometry">
            <Array as="points"/>
          </mxGeometry>
        </mxCell>
        <mxCell id="label_1002" value="Database Access" style="edgeLabel;html=1;align=center;verticalAlign=middle;resizable=0;points=[];fontSize=12;fontColor=#2196F3;" vertex="1" connectable="0" parent="conn_ms_product_service_to_aws_rds">
          <mxGeometry x="-0.1" y="1" relative="1" as="geometry">
            <mxPoint as="offset"/>
          </mxGeometry>
        </mxCell>
      </root>
    </mxGraphModel>
  </diagram>
</mxfile>